<svg xmlns="http://www.w3.org/2000/svg" viewBox="0 0 822.41 440.5"><defs><style>.cls-1{fill:#101010;}</style></defs><title>Asset 14</title><g id="Layer_2" data-name="Layer 2"><g id="Layer_4" data-name="Layer 4"><path class="cls-1" d="M321.55,51.87V207.5c0,28.91,14.9,41.54,41.5,41.5h124.5Z"/><path class="cls-1" d="M487.55,41.57V197.12L321.55,0H446C474.9.31,487.59,15.21,487.55,41.57Z"/><path class="cls-1" d="M0,439.58V308.31H17L97.3,414.06V308.31h16.06V439.58h-17L16.06,332.91V439.58Z"/><path class="cls-1" d="M205.9,307.39q-61.29,0-65.58,57.7h17.91q3.72-43.92,47.67-43.92,43,0,46.66,43.88h17.91Q266.21,307.4,205.9,307.39ZM252.57,382Q249,426.72,205.9,426.73q-44,0-47.68-44.65h-18q3.81,58.41,65.65,58.41,60.92,0,64.66-58.47Z"/><path class="cls-1" d="M414.65,308.31,358.93,439.58H340.11l-56-131.27H302L350.11,422,397,308.31Z"/><path class="cls-1" d="M540.55,381.91q-3.52,44.82-46.68,44.82-44.07,0-47.69-44.78h-18q3.75,58.55,65.66,58.54,61,0,64.66-58.6Zm-46.68-74.52q-61.21,0-65.57,57.57h17.92q3.77-43.8,47.65-43.79,42.93,0,46.65,43.75h17.91Q554.12,307.39,493.87,307.39Z"/><path class="cls-1" d="M585.39,439.58V308.31h56q37.45,0,37.45,31.49,0,25.61-36.63,37.91l45.07,61.87h-22.4l-41.77-59V369.45q37.64-6,37.64-28.92,0-18.18-20.93-18.18H602.37V439.58Z"/><path class="cls-1" d="M709.5,439.58H691.87l55.72-131.27h18.82l56,131.27H803.59l-17-41.31H743.19l4.68-13.77h33L756.41,325Z"/></g></g></svg>