<svg height="512pt" viewBox="0 -40 512 512" width="512pt" xmlns="http://www.w3.org/2000/svg"><path d="m89.929688 77.554688v178.496093c-6.609376-.394531-13.648438 0-20.957032 1.285157-38.09375 6.71875-68.972656 35.023437-68.972656 63.21875 0 28.195312 30.878906 45.605468 68.972656 38.890624 38.09375-6.71875 68.972656-35.019531 68.972656-63.214843v-227.140625zm0 0" fill="#ade9f0"/><path d="m124.925781 328.359375c-83.492187 35-107.394531-25.832031-85.5625-60.863281-23.273437 12.304687-39.363281 32.707031-39.363281 53.058594 0 28.195312 30.878906 45.605468 68.972656 38.890624 23.042969-4.0625 43.429688-16.03125 55.953125-31.085937zm0 0" fill="#98dae3"/><path d="m295.957031 41.226562v178.496094c-6.609375-.394531-13.648437 0-20.957031 1.285156-38.09375 6.71875-68.972656 35.019532-68.972656 63.214844 0 28.199219 30.878906 45.609375 68.972656 38.894532 38.09375-6.71875 68.972656-35.019532 68.972656-63.214844v-227.140625zm0 0" fill="#ade9f0"/><path d="m330.953125 292.03125c-83.492187 35-107.394531-25.832031-85.5625-60.863281-23.273437 12.304687-39.363281 32.707031-39.363281 53.054687 0 28.199219 30.878906 45.609375 68.972656 38.894532 23.042969-4.0625 43.429688-16.03125 55.953125-31.085938zm0 0" fill="#98dae3"/><path d="m343.972656 71.101562-254.042968 44.796876v-41.015626c0-20.628906 14.808593-38.277343 35.125-41.859374l184.730468-32.574219c17.835938-3.144531 34.1875 10.578125 34.1875 28.6875zm0 0" fill="#88c8e9"/><path d="m176.683594 23.921875-51.628906 9.101563c-20.316407 3.582031-35.125 21.230468-35.125 41.859374v41.015626l122.21875-21.550782c-36.425782-9.792968-51.507813-52.015625-35.464844-70.425781zm0 0" fill="#73b6d9"/><path d="m396.585938 179.433594v148.132812c-6.609376-.394531-13.648438 0-20.957032 1.285156-38.09375 6.71875-68.976562 35.019532-68.976562 63.214844 0 28.195313 30.882812 45.609375 68.976562 38.894532 38.089844-6.71875 68.972656-35.019532 68.972656-63.214844v-196.78125zm0 0" fill="#fce68d"/><path d="m431.582031 399.871094c-83.492187 35.003906-107.394531-25.828125-85.5625-60.863282-23.273437 12.304688-39.363281 32.707032-39.363281 53.058594 0 28.195313 30.878906 45.609375 68.972656 38.890625 23.039063-4.0625 43.425782-16.027343 55.953125-31.085937zm0 0" fill="#f0d87c"/><path d="m496.175781 123.535156-64.464843 11.367188c-20.316407 3.582031-35.125 21.230468-35.125 41.855468v41.015626l80.015624-14.109376c20.472657-3.609374 35.398438-21.398437 35.398438-42.183593v-24.667969c0-8.382812-7.570312-14.734375-15.824219-13.277344zm0 0" fill="#f7c67b"/><path d="m434.035156 134.488281-2.328125.414063c-20.3125 3.582031-35.121093 21.230468-35.121093 41.855468v41.015626l70.855468-12.492188c-33.351562-4.601562-45.347656-49.089844-33.40625-70.792969zm0 0" fill="#ebb460"/></svg>